<?xml version="1.0" encoding="UTF-8"?>
<svg width="700pt" height="700pt" version="1.1" viewBox="0 0 700 700" xmlns="http://www.w3.org/2000/svg" xmlns:xlink="http://www.w3.org/1999/xlink">
 <defs>
  <symbol id="h" overflow="visible">
   <path d="m1.875-0.10938c-0.09375 0.054688-0.19531 0.089844-0.29688 0.10938-0.10547 0.03125-0.21484 0.046875-0.32812 0.046875-0.34375 0-0.61719-0.09375-0.8125-0.28125-0.19922-0.19531-0.29688-0.45703-0.29688-0.78125 0-0.32031 0.097656-0.57812 0.29688-0.76562 0.19531-0.19531 0.46875-0.29688 0.8125-0.29688 0.11328 0 0.22266 0.015625 0.32812 0.046875 0.10156 0.023438 0.20312 0.058594 0.29688 0.10938v0.42188c-0.09375-0.070312-0.19531-0.11719-0.29688-0.14062-0.09375-0.03125-0.19531-0.046875-0.29688-0.046875-0.1875 0-0.33594 0.0625-0.4375 0.1875-0.10547 0.11719-0.15625 0.27734-0.15625 0.48438 0 0.21094 0.050781 0.375 0.15625 0.5 0.10156 0.11719 0.25 0.17188 0.4375 0.17188 0.10156 0 0.20312-0.015625 0.29688-0.046875 0.10156-0.03125 0.20312-0.078125 0.29688-0.14062z"/>
  </symbol>
  <symbol id="d" overflow="visible">
   <path d="m1.375-1.1094c-0.042969-0.019531-0.085938-0.035156-0.125-0.046875-0.042969-0.007812-0.089844-0.015625-0.14062-0.015625-0.125 0-0.22656 0.042969-0.29688 0.125-0.0625 0.074219-0.09375 0.1875-0.09375 0.34375v0.70312h-0.48438v-1.5312h0.48438v0.25c0.0625-0.09375 0.13281-0.16016 0.21875-0.20312 0.082031-0.050781 0.17969-0.078125 0.29688-0.078125h0.046875 0.09375z"/>
  </symbol>
  <symbol id="a" overflow="visible">
   <path d="m1.7656-0.76562v0.14062h-1.1406c0.007812 0.11719 0.046875 0.20312 0.10938 0.26562 0.070313 0.054687 0.17578 0.078125 0.3125 0.078125 0.09375 0 0.19141-0.015625 0.29688-0.046875 0.11328-0.03125 0.22656-0.078125 0.34375-0.14062v0.375c-0.11719 0.042969-0.23047 0.074219-0.34375 0.09375-0.11719 0.03125-0.23047 0.046875-0.34375 0.046875-0.28125 0-0.5-0.066406-0.65625-0.20312-0.14844-0.14453-0.21875-0.34766-0.21875-0.60938 0-0.25 0.070312-0.44141 0.21875-0.57812 0.15625-0.14453 0.36328-0.21875 0.625-0.21875 0.23828 0 0.42969 0.074219 0.57812 0.21875 0.14453 0.14844 0.21875 0.33984 0.21875 0.57812zm-0.5-0.17188c0-0.09375-0.03125-0.16406-0.09375-0.21875-0.054687-0.050781-0.12109-0.078125-0.20312-0.078125-0.09375 0-0.17188 0.027344-0.23438 0.078125-0.0625 0.054688-0.10156 0.125-0.10938 0.21875z"/>
  </symbol>
  <symbol id="c" overflow="visible">
   <path d="m0.92188-0.6875c-0.10547 0-0.18359 0.023438-0.23438 0.0625-0.054688 0.03125-0.078125 0.078125-0.078125 0.14062s0.019531 0.11719 0.0625 0.15625c0.039063 0.03125 0.097656 0.046875 0.17188 0.046875 0.09375 0 0.17188-0.03125 0.23438-0.09375 0.0625-0.070312 0.09375-0.15625 0.09375-0.25v-0.0625zm0.75-0.1875v0.875h-0.5v-0.23438c-0.0625 0.09375-0.13672 0.16797-0.21875 0.21875-0.085937 0.039062-0.18359 0.0625-0.29688 0.0625-0.15625 0-0.28906-0.046875-0.39062-0.14062-0.09375-0.09375-0.14062-0.21094-0.14062-0.35938 0-0.1875 0.054688-0.32031 0.17188-0.40625 0.125-0.082031 0.32031-0.125 0.59375-0.125h0.28125v-0.03125c0-0.082031-0.03125-0.14062-0.09375-0.17188s-0.15625-0.046875-0.28125-0.046875c-0.10547 0-0.20312 0.011719-0.29688 0.03125-0.085938 0.023437-0.16797 0.054687-0.25 0.09375v-0.375c0.10156-0.03125 0.20703-0.050781 0.3125-0.0625 0.11328-0.007813 0.22266-0.015625 0.32812-0.015625 0.26953 0 0.46875 0.058594 0.59375 0.17188 0.125 0.10547 0.1875 0.27734 0.1875 0.51562z"/>
  </symbol>
  <symbol id="b" overflow="visible">
   <path d="m0.76562-1.9688v0.4375h0.5v0.34375h-0.5v0.65625c0 0.074219 0.015625 0.125 0.046875 0.15625 0.03125 0.023438 0.085938 0.03125 0.17188 0.03125h0.25v0.34375h-0.42188c-0.19922 0-0.33984-0.035156-0.42188-0.10938-0.074219-0.082031-0.10938-0.22266-0.10938-0.42188v-0.65625h-0.25v-0.34375h0.25v-0.4375z"/>
  </symbol>
  <symbol id="k" overflow="visible">
   <path d="m1.2812-1.3125v-0.8125h0.48438v2.125h-0.48438v-0.21875c-0.074219 0.085938-0.15234 0.15234-0.23438 0.20312-0.074219 0.039062-0.16797 0.0625-0.28125 0.0625-0.1875 0-0.34375-0.070312-0.46875-0.21875-0.11719-0.15625-0.17188-0.35156-0.17188-0.59375 0-0.22656 0.054688-0.41406 0.17188-0.5625 0.125-0.15625 0.28125-0.23438 0.46875-0.23438 0.11328 0 0.20703 0.023438 0.28125 0.0625 0.082031 0.042969 0.16016 0.10547 0.23438 0.1875zm-0.32812 1c0.10156 0 0.17969-0.035156 0.23438-0.10938 0.0625-0.082031 0.09375-0.19531 0.09375-0.34375 0-0.14453-0.03125-0.25391-0.09375-0.32812-0.054688-0.082031-0.13281-0.125-0.23438-0.125-0.10547 0-0.1875 0.042969-0.25 0.125-0.054687 0.074219-0.078125 0.18359-0.078125 0.32812 0 0.14844 0.023438 0.26172 0.078125 0.34375 0.0625 0.074219 0.14453 0.10938 0.25 0.10938z"/>
  </symbol>
  <symbol id="j" overflow="visible">
   <path d="m1.0469-0.3125c0.10156 0 0.17969-0.035156 0.23438-0.10938 0.0625-0.082031 0.09375-0.19531 0.09375-0.34375 0-0.14453-0.03125-0.25391-0.09375-0.32812-0.054688-0.082031-0.13281-0.125-0.23438-0.125-0.10547 0-0.1875 0.042969-0.25 0.125-0.054687 0.074219-0.078125 0.18359-0.078125 0.32812 0 0.14844 0.023438 0.26172 0.078125 0.34375 0.0625 0.074219 0.14453 0.10938 0.25 0.10938zm-0.32812-1c0.070312-0.082031 0.14844-0.14453 0.23438-0.1875 0.082031-0.039062 0.17578-0.0625 0.28125-0.0625 0.1875 0 0.33594 0.078125 0.45312 0.23438 0.125 0.14844 0.1875 0.33594 0.1875 0.5625 0 0.24219-0.0625 0.4375-0.1875 0.59375-0.11719 0.14844-0.26562 0.21875-0.45312 0.21875-0.10547 0-0.19922-0.023438-0.28125-0.0625-0.085937-0.050781-0.16406-0.11719-0.23438-0.20312v0.21875h-0.48438v-2.125h0.48438z"/>
  </symbol>
  <symbol id="i" overflow="visible">
   <path d="m0.03125-1.5312h0.48438l0.42188 1.0469 0.34375-1.0469h0.48438l-0.64062 1.6719c-0.0625 0.17578-0.13672 0.29688-0.21875 0.35938-0.085938 0.070312-0.19922 0.10938-0.34375 0.10938h-0.28125v-0.32812h0.15625c0.082031 0 0.14062-0.015625 0.17188-0.046875 0.039063-0.023437 0.070313-0.070313 0.09375-0.14062l0.015625-0.03125z"/>
  </symbol>
  <symbol id="f" overflow="visible">
   <path d="m0.23438-1.5312h0.48438v1.5312h-0.48438zm0-0.59375h0.48438v0.40625h-0.48438z"/>
  </symbol>
  <symbol id="u" overflow="visible">
   <path d="m0.046875-1.5312h0.48438l0.375 1.0625 0.39062-1.0625h0.48438l-0.59375 1.5312h-0.54688z"/>
  </symbol>
  <symbol id="t" overflow="visible">
   <path d="m0.25-2.0312h0.67188l0.46875 1.0781 0.46875-1.0781h0.67188v2.0312h-0.5v-1.4844l-0.46875 1.0938h-0.34375l-0.46875-1.0938v1.4844h-0.5z"/>
  </symbol>
  <symbol id="g" overflow="visible">
   <path d="m1.7656-0.9375v0.9375h-0.48438v-0.71875c0-0.125-0.007812-0.21094-0.015625-0.26562 0-0.050781-0.011719-0.085937-0.03125-0.10938-0.011719-0.03125-0.039063-0.054688-0.078125-0.078125-0.03125-0.019531-0.070312-0.03125-0.10938-0.03125-0.09375 0-0.17188 0.042969-0.23438 0.125-0.0625 0.074219-0.09375 0.18359-0.09375 0.32812v0.75h-0.48438v-1.5312h0.48438v0.21875c0.070312-0.082031 0.14844-0.14453 0.23438-0.1875 0.082031-0.039062 0.17578-0.0625 0.28125-0.0625 0.17578 0 0.30469 0.058594 0.39062 0.17188 0.09375 0.10547 0.14062 0.25781 0.14062 0.45312z"/>
  </symbol>
  <symbol id="s" overflow="visible">
   <path d="m1.2344-2.125v0.32812h-0.26562c-0.0625 0-0.10938 0.011719-0.14062 0.03125-0.03125 0.023437-0.046875 0.0625-0.046875 0.125v0.10938h0.42188v0.34375h-0.42188v1.1875h-0.48438v-1.1875h-0.25v-0.34375h0.25v-0.10938c0-0.16406 0.046875-0.28516 0.14062-0.35938 0.09375-0.082031 0.23828-0.125 0.4375-0.125z"/>
  </symbol>
  <symbol id="e" overflow="visible">
   <path d="m0.96875-1.2188c-0.11719 0-0.20312 0.042969-0.26562 0.125-0.054687 0.074219-0.078125 0.18359-0.078125 0.32812 0 0.14844 0.023438 0.26172 0.078125 0.34375 0.0625 0.074219 0.14844 0.10938 0.26562 0.10938 0.10156 0 0.17969-0.035156 0.23438-0.10938 0.0625-0.082031 0.09375-0.19531 0.09375-0.34375 0-0.14453-0.03125-0.25391-0.09375-0.32812-0.054687-0.082031-0.13281-0.125-0.23438-0.125zm0-0.34375c0.25781 0 0.46094 0.074219 0.60938 0.21875 0.14453 0.13672 0.21875 0.32812 0.21875 0.57812s-0.074219 0.44922-0.21875 0.59375c-0.14844 0.14844-0.35156 0.21875-0.60938 0.21875-0.27344 0-0.48047-0.070312-0.625-0.21875-0.14844-0.14453-0.21875-0.34375-0.21875-0.59375s0.070312-0.44141 0.21875-0.57812c0.14453-0.14453 0.35156-0.21875 0.625-0.21875z"/>
  </symbol>
  <symbol id="r" overflow="visible">
   <path d="m1.6562-1.2812c0.0625-0.09375 0.13281-0.16016 0.21875-0.20312 0.082031-0.050781 0.17578-0.078125 0.28125-0.078125 0.17578 0 0.30469 0.058594 0.39062 0.17188 0.09375 0.10547 0.14062 0.25781 0.14062 0.45312v0.9375h-0.48438v-0.79688-0.03125-0.0625c0-0.10156-0.015625-0.17969-0.046875-0.23438-0.03125-0.050781-0.085938-0.078125-0.15625-0.078125-0.09375 0-0.16797 0.042969-0.21875 0.125-0.042969 0.074219-0.070312 0.18359-0.078125 0.32812v0.75h-0.48438v-0.79688c0-0.16406-0.015625-0.27344-0.046875-0.32812-0.03125-0.050781-0.085937-0.078125-0.15625-0.078125-0.09375 0-0.16797 0.042969-0.21875 0.125-0.054687 0.074219-0.078125 0.18359-0.078125 0.32812v0.75h-0.48438v-1.5312h0.48438v0.21875c0.0625-0.082031 0.12891-0.14453 0.20312-0.1875 0.082031-0.039062 0.17188-0.0625 0.26562-0.0625 0.10156 0 0.19531 0.027344 0.28125 0.078125 0.082031 0.054687 0.14453 0.12109 0.1875 0.20312z"/>
  </symbol>
  <symbol id="q" overflow="visible">
   <path d="m1.7656-0.9375v0.9375h-0.48438v-0.70312c0-0.13281-0.007812-0.22656-0.015625-0.28125 0-0.050781-0.011719-0.085937-0.03125-0.10938-0.011719-0.03125-0.039063-0.054688-0.078125-0.078125-0.03125-0.019531-0.070312-0.03125-0.10938-0.03125-0.09375 0-0.17188 0.042969-0.23438 0.125-0.0625 0.074219-0.09375 0.18359-0.09375 0.32812v0.75h-0.48438v-2.125h0.48438v0.8125c0.070312-0.082031 0.14844-0.14453 0.23438-0.1875 0.082031-0.039062 0.17578-0.0625 0.28125-0.0625 0.17578 0 0.30469 0.058594 0.39062 0.17188 0.09375 0.10547 0.14062 0.25781 0.14062 0.45312z"/>
  </symbol>
  <symbol id="p" overflow="visible">
   <path d="m0.25-2.0312h0.59375l0.73438 1.3906v-1.3906h0.5v2.0312h-0.57812l-0.75-1.4062v1.4062h-0.5z"/>
  </symbol>
  <symbol id="o" overflow="visible">
   <path d="m0.21875-0.59375v-0.9375h0.48438v0.15625 0.3125 0.25 0.26562c0.007813 0.054687 0.023437 0.089844 0.046875 0.10938 0.019531 0.042969 0.046875 0.074219 0.078125 0.09375 0.03125 0.011719 0.066406 0.015625 0.10938 0.015625 0.10156 0 0.17969-0.035156 0.23438-0.10938 0.0625-0.082031 0.09375-0.19531 0.09375-0.34375v-0.75h0.48438v1.5312h-0.48438v-0.21875c-0.074219 0.085938-0.15234 0.15234-0.23438 0.20312-0.085938 0.039062-0.17188 0.0625-0.26562 0.0625-0.17969 0-0.3125-0.050781-0.40625-0.15625-0.09375-0.11328-0.14062-0.27344-0.14062-0.48438z"/>
  </symbol>
  <symbol id="n" overflow="visible">
   <path d="m0.25-2.0312h0.875c0.25781 0 0.45703 0.058594 0.59375 0.17188 0.14453 0.11719 0.21875 0.27734 0.21875 0.48438 0 0.21875-0.074219 0.38672-0.21875 0.5-0.13672 0.11719-0.33594 0.17188-0.59375 0.17188h-0.34375v0.70312h-0.53125zm0.53125 0.375v0.5625h0.29688c0.09375 0 0.16406-0.019531 0.21875-0.0625 0.0625-0.050781 0.09375-0.125 0.09375-0.21875s-0.03125-0.16016-0.09375-0.20312c-0.054687-0.050781-0.125-0.078125-0.21875-0.078125z"/>
  </symbol>
  <symbol id="m" overflow="visible">
   <path d="m0.23438-1.5312h0.48438v1.5c0 0.20703-0.054688 0.36328-0.15625 0.46875-0.09375 0.11328-0.23047 0.17188-0.40625 0.17188h-0.25v-0.32812h0.078125c0.09375 0 0.15625-0.023438 0.1875-0.0625 0.039063-0.042969 0.0625-0.125 0.0625-0.25zm0-0.59375h0.48438v0.40625h-0.48438z"/>
  </symbol>
  <symbol id="l" overflow="visible">
   <path d="m1.4688-1.4844v0.40625c-0.0625-0.050781-0.13281-0.085937-0.20312-0.10938-0.0625-0.019531-0.13281-0.03125-0.20312-0.03125-0.13672 0-0.24609 0.042969-0.32812 0.125-0.074219 0.074219-0.10938 0.18359-0.10938 0.32812 0 0.14844 0.035156 0.26172 0.10938 0.34375 0.082031 0.074219 0.19141 0.10938 0.32812 0.10938 0.070312 0 0.14453-0.007812 0.21875-0.03125 0.070312-0.019531 0.13281-0.050781 0.1875-0.09375v0.39062c-0.074219 0.03125-0.15234 0.050781-0.23438 0.0625-0.074219 0.019531-0.15234 0.03125-0.23438 0.03125-0.27344 0-0.48438-0.070312-0.64062-0.21875-0.15625-0.14453-0.23438-0.34375-0.23438-0.59375s0.078125-0.44141 0.23438-0.57812c0.15625-0.14453 0.36719-0.21875 0.64062-0.21875 0.082031 0 0.16016 0.007812 0.23438 0.015625 0.082031 0.011719 0.16016 0.03125 0.23438 0.0625z"/>
  </symbol>
 </defs>
 <g>
  <path d="m465.11 433.11c-5.6953 0-11.078 1.8633-15.562 5.3906-4.0703 3.1992-6.8828 7.4102-8.375 12l-13.078-16.637 31.258-24.57c2.4297-1.9102 2.8516-5.4297 0.94141-7.8633l-11.703-14.887c-0.91797-1.168-2.2617-1.9219-3.7383-2.0977-1.4727-0.17578-2.957 0.23828-4.125 1.1562l-7.043 5.5391-42.898-54.566 47.176-60.008c0-0.003906 0.003906-0.003906 0.003906-0.007812 0.22266-0.28516 0.41797-0.58984 0.58203-0.91406 0.011719-0.019531 0.019531-0.042969 0.03125-0.066406 0.066406-0.13672 0.13281-0.27734 0.1875-0.42188 0.015625-0.042969 0.03125-0.089844 0.046875-0.13281 0.042969-0.12109 0.085938-0.24219 0.12109-0.36719 0.019531-0.0625 0.03125-0.12891 0.050781-0.19531 0.027344-0.10547 0.050781-0.21094 0.074219-0.32031 0.015625-0.082031 0.023437-0.16016 0.035156-0.24219 0.011719-0.074219 0.023438-0.14453 0.03125-0.21875l5.9805-57.441c0.19922-1.9141-0.59766-3.793-2.1094-4.9805-1.5117-1.1875-3.5273-1.5195-5.3398-0.875l-54.406 19.371c-0.050781 0.015625-0.09375 0.039063-0.14453 0.058594-0.10156 0.039062-0.20312 0.078125-0.30078 0.125-0.074219 0.035156-0.14453 0.070312-0.21875 0.10547-0.089844 0.046875-0.17969 0.09375-0.26953 0.14453-0.078125 0.042969-0.15234 0.09375-0.22656 0.14062-0.074219 0.050781-0.15234 0.10156-0.22656 0.15234-0.082031 0.058593-0.16016 0.11719-0.23438 0.17969-0.0625 0.050782-0.125 0.10156-0.1875 0.15625-0.082031 0.070313-0.16016 0.14844-0.23828 0.22266-0.050781 0.050782-0.10547 0.10156-0.15625 0.15625-0.082031 0.085938-0.15625 0.17578-0.23047 0.26563l-0.09375 0.10547-36.246 46.105-30.812-39.195c-0.03125-0.039062-0.0625-0.070312-0.09375-0.10547-0.074218-0.089844-0.14844-0.17578-0.22656-0.26172-0.050781-0.054687-0.10547-0.10938-0.16016-0.16016-0.074219-0.074219-0.15234-0.14844-0.23047-0.21875-0.0625-0.054688-0.12891-0.10938-0.19531-0.16406-0.074218-0.058594-0.14844-0.11719-0.22656-0.17188-0.078125-0.054687-0.15625-0.10938-0.23828-0.16016-0.070313-0.046875-0.14062-0.089844-0.21484-0.13281-0.09375-0.054687-0.1875-0.10547-0.28125-0.15234-0.066406-0.035157-0.13281-0.066407-0.20312-0.097657-0.10547-0.046874-0.21094-0.089843-0.32031-0.13281-0.042969-0.015625-0.085938-0.039062-0.13281-0.054688l-54.406-19.371c-1.8125-0.64453-3.8281-0.31641-5.3398 0.875-1.5117 1.1875-2.3086 3.0703-2.1094 4.9805l5.9805 57.441c0.007813 0.074218 0.023437 0.14453 0.03125 0.21484 0.011719 0.082031 0.023437 0.16016 0.035156 0.24219 0.019531 0.10938 0.046875 0.21484 0.074219 0.32422 0.015625 0.0625 0.03125 0.12891 0.046875 0.19141 0.035156 0.12891 0.082031 0.25 0.125 0.375 0.015625 0.042969 0.027344 0.085938 0.042969 0.125 0.058594 0.14844 0.125 0.29297 0.19141 0.43359 0.007812 0.015625 0.015625 0.035156 0.023438 0.050781 0.16406 0.32812 0.36328 0.63281 0.58594 0.91797 0 0.003906 0.003906 0.003906 0.003906 0.007812l41.746 53.102-37.469 47.66-7.043-5.5391c-1.168-0.91797-2.6523-1.3359-4.125-1.1562-1.4727 0.17578-2.8203 0.93359-3.7383 2.0977l-11.703 14.887c-1.9102 2.4297-1.4883 5.9531 0.94141 7.8633l31.258 24.57-13.078 16.637c-1.4883-4.5898-4.3047-8.8008-8.375-12-4.4844-3.5273-9.8672-5.3906-15.562-5.3906-7.7891 0-15.016 3.5078-19.824 9.625-8.5859 10.926-6.6875 26.797 4.2383 35.387 4.4844 3.5234 9.8672 5.3867 15.559 5.3906 1.9219 0 3.8086-0.21484 5.6328-0.62891 0.011719 0.87891 0.070313 1.7656 0.17578 2.6484 0.80078 6.6836 4.1562 12.656 9.4453 16.816 4.4844 3.5273 9.8672 5.3906 15.562 5.3906 7.7891 0 15.016-3.5078 19.824-9.625 4.1602-5.293 6.0117-11.887 5.2109-18.57-0.80078-6.6836-4.1562-12.656-9.4453-16.816-3.9727-3.125-8.6523-4.9414-13.629-5.3125l13.07-16.629 31.258 24.574c1.0273 0.80469 2.2461 1.1992 3.457 1.1992 1.6602 0 3.3008-0.73438 4.4062-2.1367l11.703-14.887c0.91797-1.168 1.3359-2.6523 1.1562-4.125-0.17578-1.4766-0.93359-2.8203-2.0977-3.7383l-7.043-5.5391 26.535-33.754 31.969 40.664-7.043 5.5391c-1.168 0.91797-1.9219 2.2617-2.0977 3.7383-0.17578 1.4766 0.23828 2.9609 1.1562 4.125l11.703 14.887c1.1055 1.4062 2.7461 2.1367 4.4062 2.1367 1.2109 0 2.4297-0.39062 3.457-1.1992l31.258-24.574 13.07 16.629c-4.9766 0.375-9.6562 2.1914-13.629 5.3125-5.293 4.1602-8.6484 10.133-9.4492 16.816-0.80078 6.6836 1.0508 13.277 5.2109 18.57 4.8086 6.1172 12.035 9.625 19.824 9.625 5.6953 0 11.074-1.8633 15.562-5.3906 5.293-4.1602 8.6445-10.133 9.4453-16.816 0.10547-0.88672 0.16406-1.7695 0.17578-2.6484 1.8242 0.41406 3.7109 0.62891 5.6328 0.62891 5.6953 0 11.074-1.8633 15.562-5.3906 10.922-8.5898 12.824-24.461 4.2344-35.387-4.8008-6.1211-12.023-9.6289-19.812-9.6289zm-235.85 32.293c-3.1602 0-6.1484-1.0352-8.6406-2.9961-6.0703-4.7734-7.125-13.59-2.3555-19.66 2.6719-3.3984 6.6875-5.3477 11.02-5.3477 3.1602 0 6.1484 1.0352 8.6406 2.9961 6.0703 4.7695 7.125 13.59 2.3555 19.66-2.6719 3.3984-6.6875 5.3477-11.02 5.3477zm44.73 8.5625c0.44531 3.7148-0.58203 7.375-2.8945 10.316-2.6719 3.3984-6.6875 5.3477-11.02 5.3477-3.1602 0-6.1484-1.0352-8.6406-2.9961-2.9414-2.3125-4.8047-5.6289-5.25-9.3438-0.44531-3.7148 0.58203-7.375 2.8945-10.316 2.6719-3.3984 6.6875-5.3477 11.02-5.3477 3.1602 0 6.1484 1.0352 8.6406 2.9961 2.9414 2.3125 4.8086 5.6328 5.25 9.3438zm34.895-27.781-62.516-49.145 4.7812-6.082 7.0391 5.5352 0.003906 0.003906 21.359 16.789 34.113 26.82zm120.15-183.76-32.469-25.523 36.477-12.988zm-42.965-19.535 39.621 31.148-42.031 53.469-32.055-40.773zm-88.25 0.91797-32.469 25.523-4.0078-38.512zm11.316 178.49-39.621-31.148 35.785-45.52 32.055 40.773zm76.113 6.9102-116.55-148.26 39.621-31.148 116.55 148.26-12.496 9.8242zm0.25781 23.883-4.7812-6.082 23.613-18.566 31.855-25.043c0.003906-0.003907 0.003906-0.003907 0.007812-0.007813l7.0352-5.5312 4.7812 6.082zm62.691 31.113c-0.44531 3.7148-2.3086 7.0312-5.2461 9.3438-2.4922 1.957-5.4805 2.9961-8.6406 2.9961-4.332 0-8.3477-1.9492-11.02-5.3477-2.3125-2.9375-3.3398-6.6016-2.8945-10.316 0.44531-3.7109 2.3086-7.0312 5.25-9.3438 2.4922-1.9609 5.4805-2.9961 8.6406-2.9961 4.332 0 8.3477 1.9492 11.02 5.3477 2.3086 2.9375 3.3359 6.6016 2.8906 10.316zm25.57-14.887c-2.4922 1.957-5.4805 2.9961-8.6406 2.9961-4.332 0-8.3477-1.9492-11.02-5.3477-4.7695-6.0703-3.7148-14.887 2.3555-19.66 2.4922-1.957 5.4805-2.9961 8.6406-2.9961 4.332 0 8.3477 1.9492 11.02 5.3477 4.7695 6.0703 3.7148 14.891-2.3555 19.66z"/>
  <path d="m293.92 284.03c-1.9102-2.4297-5.4297-2.8516-7.8633-0.94141-2.4297 1.9102-2.8516 5.4336-0.94141 7.8633l61.816 78.629c1.1055 1.4062 2.7461 2.1367 4.4062 2.1367 1.2109 0 2.4297-0.39062 3.457-1.1992 2.4297-1.9102 2.8516-5.4336 0.94141-7.8633z"/>
  <path d="m386.19 401.4-16.758-21.316c-1.9102-2.4336-5.4297-2.8555-7.8633-0.94141-2.4336 1.9102-2.8516 5.4297-0.94141 7.8633l16.758 21.316c1.1055 1.4062 2.7461 2.1406 4.4062 2.1406 1.2109 0 2.4297-0.39062 3.457-1.1992 2.4297-1.9102 2.8516-5.4297 0.94141-7.8633z"/>
  <path d="m202.11 155.47c-2.4297 1.9102-2.8516 5.4336-0.94141 7.8633l31.289 39.801c1.1055 1.4062 2.7461 2.1406 4.4062 2.1406 1.2109 0 2.4297-0.39062 3.457-1.1992 2.4297-1.9102 2.8516-5.4336 0.94141-7.8633l-31.289-39.801c-1.9102-2.4336-5.4297-2.8555-7.8633-0.94141z"/>
  <path d="m228.37 226.19c1.7734 0 3.5156-0.83984 4.6055-2.4062 1.7656-2.5391 1.1328-6.0312-1.4062-7.793l-31.371-21.781c-2.5391-1.7656-6.0312-1.1328-7.793 1.4062-1.7656 2.5391-1.1328 6.0312 1.4062 7.793l31.371 21.781c0.97266 0.67578 2.0859 1 3.1875 1z"/>
  <path d="m253.97 198.38c0.85938 2.2227 2.9766 3.582 5.2266 3.582 0.67188 0 1.3516-0.12109 2.0156-0.37891 2.8867-1.1133 4.3203-4.3555 3.207-7.2422l-13.762-35.625c-1.1133-2.8828-4.3555-4.3203-7.2422-3.207-2.8867 1.1133-4.3203 4.3555-3.207 7.2422z"/>
  <path d="m138.77 127.72c-10.133 0-15.309 7.9688-16.699 12.344-2.9297 8.0664-2.6172 14.73 0.92969 19.809 4.0938 5.8633 12.094 8.832 23.789 8.832 13.762 0 28.488-4.0195 29.109-4.1914 1.8477-0.50781 3.3047-1.9258 3.8633-3.7578 0.5625-1.832 0.14844-3.8203-1.0977-5.2773-15.961-18.676-29.012-27.758-39.895-27.758zm8.0195 29.789c-7.4844 0-12.809-1.4727-14.605-4.0469-1.6797-2.4062-0.67969-6.5898 0.45312-9.6758 0.039062-0.10547 0.074219-0.20703 0.10547-0.31641 0.011718-0.046875 1.4219-4.5508 6.0312-4.5508 3.5938 0 11.34 2.3672 25.066 16.812-4.9062 0.90625-11.148 1.7773-17.051 1.7773z"/>
  <path d="m214.96 140.04c1.0586 1.4609 2.7461 2.3203 4.5391 2.3203 0.11328 0 0.22266-0.003906 0.33594-0.011719 1.9102-0.11328 3.6328-1.1992 4.5625-2.8711 13.098-23.598 16.602-39.934 10.711-49.945-4.6289-7.8633-13.031-8.4727-15.492-8.4727-0.22656 0-0.40234 0.003906-0.52734 0.007812-11.996 0.097657-17.141 5.2812-19.344 9.625-3.7031 7.2969-2.0977 18.023 4.7734 31.883 4.6992 9.4922 10.211 17.145 10.441 17.465zm-5.2344-44.277c1.1641-2.293 4.375-3.4688 9.543-3.4961h0.050781c0.10156 0 0.13281 0 0.23828-0.007812h0.050781c0.96094 0 4.2266 0.21094 5.8438 2.957 1.4688 2.4961 3.4141 10.199-6.4922 30.5-6.4336-10.801-12.125-24.262-9.2344-29.953z"/>
  <path d="m484.42 149.5-31.289 39.801c-1.9102 2.4297-1.4883 5.9531 0.94141 7.8633 1.0273 0.80469 2.2461 1.1992 3.457 1.1992 1.6602 0 3.3008-0.73438 4.4062-2.1406l31.289-39.801c1.9102-2.4297 1.4883-5.9531-0.94141-7.8633s-5.9492-1.4883-7.8633 0.94141z"/>
  <path d="m494.2 187.3-31.371 21.781c-2.5391 1.7656-3.1719 5.2539-1.4062 7.793 1.0859 1.5664 2.832 2.4062 4.6055 2.4062 1.1016 0 2.2148-0.32422 3.1875-1l31.371-21.781c2.5391-1.7656 3.1719-5.2539 1.4062-7.793-1.7656-2.5391-5.2539-3.1719-7.793-1.4062z"/>
  <path d="m433.19 194.68c0.66406 0.25781 1.3438 0.37891 2.0156 0.37891 2.2461 0 4.3672-1.3633 5.2266-3.5859l13.762-35.625c1.1133-2.8867-0.32031-6.1289-3.207-7.2422-2.8828-1.1172-6.1289 0.32031-7.2422 3.207l-13.762 35.625c-1.1133 2.8867 0.32031 6.1289 3.207 7.2422z"/>
  <path d="m572.32 133.16c-1.3906-4.3711-6.5664-12.344-16.699-12.344-10.883 0-23.93 9.0781-39.891 27.758-1.2461 1.457-1.6562 3.4453-1.0977 5.2773 0.5625 1.832 2.0195 3.25 3.8633 3.7578 0.62109 0.17188 15.344 4.1914 29.109 4.1914 11.691 0 19.695-2.9727 23.785-8.832 3.5469-5.0781 3.8594-11.742 0.92969-19.809zm-10.113 13.395c-1.793 2.5703-7.1172 4.0469-14.602 4.0469-5.8867 0-12.137-0.87109-17.047-1.7773 13.727-14.441 21.469-16.809 25.066-16.809 4.2227 0 5.7422 3.7188 6.0391 4.5781 0.035156 0.12891 0.042969 0.14453 0.097656 0.28516 1.1289 3.0898 2.125 7.2734 0.44531 9.6758z"/>
  <path d="m474.57 135.45c0.11328 0.007813 0.22266 0.011719 0.33594 0.011719 1.7891 0 3.4805-0.85547 4.5391-2.3203 0.23047-0.32031 5.7422-7.9727 10.449-17.469 6.8711-13.859 8.4766-24.586 4.7734-31.883-2.2031-4.3398-7.3477-9.5273-19.344-9.625-0.125-0.003906-0.30078-0.007812-0.52734-0.007812-2.4648 0-10.863 0.60938-15.492 8.4727-5.8906 10.012-2.3906 26.348 10.711 49.945 0.92188 1.6758 2.6445 2.7617 4.5547 2.875zm-5.6211-47.137c1.6133-2.7422 4.8789-2.957 5.8438-2.957h0.050782c0.082031 0.007813 0.11719 0.007813 0.17578 0.007813h0.11328c5.168 0.027344 8.375 1.2031 9.543 3.4922 2.9297 5.7656-2.6953 19.078-9.2227 29.969-9.918-20.312-7.9727-28.012-6.5039-30.512z"/>
  <use x="70" y="568.398438" xlink:href="#h"/>
  <use x="72.054688" y="568.398438" xlink:href="#d"/>
  <use x="73.4375" y="568.398438" xlink:href="#a"/>
  <use x="75.335938" y="568.398438" xlink:href="#c"/>
  <use x="77.222656" y="568.398438" xlink:href="#b"/>
  <use x="78.5625" y="568.398438" xlink:href="#a"/>
  <use x="80.460938" y="568.398438" xlink:href="#k"/>
  <use x="83.441406" y="568.398438" xlink:href="#j"/>
  <use x="85.445312" y="568.398438" xlink:href="#i"/>
  <use x="88.246094" y="568.398438" xlink:href="#h"/>
  <use x="90.300781" y="568.398438" xlink:href="#d"/>
  <use x="91.679688" y="568.398438" xlink:href="#a"/>
  <use x="93.578125" y="568.398438" xlink:href="#c"/>
  <use x="95.46875" y="568.398438" xlink:href="#b"/>
  <use x="96.808594" y="568.398438" xlink:href="#f"/>
  <use x="97.765625" y="568.398438" xlink:href="#u"/>
  <use x="99.59375" y="568.398438" xlink:href="#a"/>
  <use x="102.464844" y="568.398438" xlink:href="#t"/>
  <use x="105.253906" y="568.398438" xlink:href="#c"/>
  <use x="107.140625" y="568.398438" xlink:href="#g"/>
  <use x="109.136719" y="568.398438" xlink:href="#f"/>
  <use x="110.09375" y="568.398438" xlink:href="#c"/>
  <use x="70" y="571.199219" xlink:href="#s"/>
  <use x="71.21875" y="571.199219" xlink:href="#d"/>
  <use x="72.597656" y="571.199219" xlink:href="#e"/>
  <use x="74.523438" y="571.199219" xlink:href="#r"/>
  <use x="78.414063" y="571.199219" xlink:href="#b"/>
  <use x="79.753906" y="571.199219" xlink:href="#q"/>
  <use x="81.746094" y="571.199219" xlink:href="#a"/>
  <use x="84.621094" y="571.199219" xlink:href="#p"/>
  <use x="86.964844" y="571.199219" xlink:href="#e"/>
  <use x="88.886719" y="571.199219" xlink:href="#o"/>
  <use x="90.882812" y="571.199219" xlink:href="#g"/>
  <use x="93.847656" y="571.199219" xlink:href="#n"/>
  <use x="95.902344" y="571.199219" xlink:href="#d"/>
  <use x="97.28125" y="571.199219" xlink:href="#e"/>
  <use x="99.207031" y="571.199219" xlink:href="#m"/>
  <use x="100.164062" y="571.199219" xlink:href="#a"/>
  <use x="102.066406" y="571.199219" xlink:href="#l"/>
  <use x="103.722656" y="571.199219" xlink:href="#b"/>
 </g>
</svg>
